<?xml version="1.0" encoding="UTF-8" standalone="no"?>
<!-- Created with Inkscape (http://www.inkscape.org/) -->

<svg
   version="1.1"
   id="svg1"
   width="1214.8916"
   height="1215.1139"
   viewBox="0 0 1214.8916 1215.1139"
   sodipodi:docname="subtask_failed.svg"
   inkscape:version="1.4.2 (ebf0e940d0, 2025-05-08)"
   xml:space="preserve"
   xmlns:inkscape="http://www.inkscape.org/namespaces/inkscape"
   xmlns:sodipodi="http://sodipodi.sourceforge.net/DTD/sodipodi-0.dtd"
   xmlns="http://www.w3.org/2000/svg"
   xmlns:svg="http://www.w3.org/2000/svg"><defs
     id="defs1" /><sodipodi:namedview
     id="namedview1"
     pagecolor="#ffffff"
     bordercolor="#000000"
     borderopacity="0.25"
     inkscape:showpageshadow="2"
     inkscape:pageopacity="0.0"
     inkscape:pagecheckerboard="0"
     inkscape:deskcolor="#d1d1d1"
     inkscape:zoom="0.3177539"
     inkscape:cx="1471.2644"
     inkscape:cy="1471.2644"
     inkscape:window-width="2032"
     inkscape:window-height="1226"
     inkscape:window-x="0"
     inkscape:window-y="0"
     inkscape:window-maximized="0"
     inkscape:current-layer="g1"><inkscape:page
       x="0"
       y="0"
       width="1214.8916"
       height="1215.1139"
       id="page2"
       margin="0"
       bleed="0" /></sodipodi:namedview><g
     inkscape:groupmode="layer"
     inkscape:label="Image"
     id="g1"
     transform="translate(-692.64331,-1513.8336)"><path
       d="m 1308.5974,1513.8963 c -26.2447,-0.3715 -52.4932,0.9093 -78.2657,3.8496 -124.0836,14.1565 -240.72737,66.4099 -334.16987,149.7012 -53.6845,47.8525 -97.8788,103.8467 -131.9394,167.166 -2.3876,4.4386 -13.7373,27.1559 -15.5274,31.0801 -0.7843,1.7196 -1.9955,4.3695 -2.6914,5.8867 -3.8133,8.3144 -10.2016,23.7316 -14.3262,34.5742 -20.2602,53.2593 -33.1518,111.294 -37.4199,168.459 -1.1221,15.0287 -1.3459,20.7442 -1.5547,39.7246 -0.2818,25.6241 0.4102,42.8896 2.6563,66.3906 11.6255,121.6381 60.4791,237.7902 139.3906,331.4024 46.1699,54.7712 100.8753,100.6221 162.2832,136.0175 7.37677,4.252 8.10667,4.6598 16.28707,9.0821 6.7923,3.6719 24.1879,12.3233 32.1836,16.0058 73.3831,33.7977 151.458,52.3911 232.2774,55.3203 50.2947,1.8229 102.4774,-2.7513 150.9277,-13.2324 100.595,-21.7613 193.5577,-68.5248 271.1406,-136.3945 19.0934,-16.7029 42.5593,-40.2559 59.0547,-59.2715 23.5209,-27.1146 43.9809,-55.2225 61.8398,-84.9531 49.8982,-83.0684 78.9471,-175.3001 85.4356,-271.2637 2.1344,-31.5669 1.7359,-66.8502 -1.1094,-98.207 -10.6397,-117.2534 -55.9323,-230.0215 -129.2656,-321.8399 -97.571,-122.1657 -235.8936,-201.6221 -388.9668,-223.4336 -25.7545,-3.6697 -51.9956,-5.6929 -78.2402,-6.0644 z m -222.8164,346.8574 c 6.4302,0.024 7.0458,0.09 11.2167,1.1934 5.5081,1.4575 12.038,4.6208 16.3692,7.9297 2.0304,1.5513 35.2947,34.5653 94.8945,94.1816 l 91.7676,91.793 92.6914,-92.6368 c 101.1454,-101.0856 94.4205,-94.6339 102.6699,-98.4921 1.9968,-0.934 5.535,-2.2007 7.8614,-2.8164 3.9865,-1.0548 4.6324,-1.1208 11.2187,-1.1368 6.1303,-0.015 7.4172,0.087 10.4824,0.8438 8.8581,2.1871 16.125,6.2105 22.2813,12.3359 8.379,8.3369 12.9948,18.7455 13.6328,30.7344 0.5176,9.7268 -2.3096,19.6705 -8.0527,28.3184 -1.4504,2.184 -21.2279,22.1645 -94.5704,95.5429 l -92.7363,92.7813 92.7285,92.7812 c 99.0668,99.1239 94.4545,94.3501 97.9746,101.3907 2.7804,5.5611 4.7871,14.1357 4.7871,20.4492 0,12.4519 -5.5219,25.1275 -14.7167,33.7773 -8.7352,8.2175 -19.4001,12.3828 -31.7012,12.3828 -10.2725,0 -19.716,-3.0844 -27.5254,-8.9941 -2.0784,-1.5727 -33.6992,-32.9518 -95.0664,-94.336 l -91.9531,-91.9785 -92.875,92.8282 c -61.4074,61.3761 -93.6209,93.3224 -95.0801,94.289 -5.7908,3.836 -11.5279,6.2287 -17.9453,7.4863 -4.8013,0.9404 -13.0536,0.9248 -17.7344,-0.035 -6.1114,-1.2532 -11.7849,-3.6328 -17.1016,-7.1719 -3.9233,-2.6114 -9.7182,-8.4989 -12.4082,-12.6055 -10.8345,-16.5402 -10.1754,-37.7945 1.6621,-53.5976 0.9092,-1.2138 43.1333,-43.7095 93.8301,-94.4356 l 92.1758,-92.2285 -92.7285,-92.7832 c -98.9894,-99.0464 -94.4594,-94.3582 -97.9512,-101.3437 -3.6721,-7.346 -5.4123,-17.2108 -4.459,-25.2774 2.4088,-20.3807 16.311,-35.7615 36.6133,-40.5078 2.3438,-0.5479 4.3283,-0.6821 9.7481,-0.6621 z"
       id="path4"
       style="fill:#c62c2c;fill-opacity:1" /></g></svg>
