<?xml version="1.0" encoding="UTF-8" standalone="no"?>
<!-- Created with Inkscape (http://www.inkscape.org/) -->

<svg
   version="1.1"
   id="svg1"
   width="1214.8967"
   height="1215.0671"
   viewBox="0 0 1214.8967 1215.0671"
   sodipodi:docname="subtask_success.svg"
   inkscape:version="1.4.2 (ebf0e940d0, 2025-05-08)"
   xml:space="preserve"
   xmlns:inkscape="http://www.inkscape.org/namespaces/inkscape"
   xmlns:sodipodi="http://sodipodi.sourceforge.net/DTD/sodipodi-0.dtd"
   xmlns="http://www.w3.org/2000/svg"
   xmlns:svg="http://www.w3.org/2000/svg"><defs
     id="defs1" /><sodipodi:namedview
     id="namedview1"
     pagecolor="#ffffff"
     bordercolor="#000000"
     borderopacity="0.25"
     inkscape:showpageshadow="2"
     inkscape:pageopacity="0.0"
     inkscape:pagecheckerboard="0"
     inkscape:deskcolor="#d1d1d1"
     inkscape:zoom="0.3177539"
     inkscape:cx="1471.2644"
     inkscape:cy="1471.2644"
     inkscape:window-width="2032"
     inkscape:window-height="1226"
     inkscape:window-x="0"
     inkscape:window-y="0"
     inkscape:window-maximized="0"
     inkscape:current-layer="g1"><inkscape:page
       x="0"
       y="0"
       width="1214.8967"
       height="1215.0671"
       id="page2"
       margin="0"
       bleed="0" /></sodipodi:namedview><g
     inkscape:groupmode="layer"
     inkscape:label="Image"
     id="g1"
     transform="translate(-692.64076,-207.27018)"><path
       d="m 1305.4778,207.29195 c -36.3039,-0.3033 -72.6977,2.56022 -108.1328,8.60157 -75.1223,12.80762 -148.0723,40.15323 -213.33399,79.9707 -17.8581,10.89559 -34.549,22.28657 -50.8906,34.72656 -7.2624,5.52847 -19.2989,15.1174 -22.875,18.22461 -0.8201,0.71255 -1.9802,1.71171 -2.5762,2.21875 -2.9913,2.54483 -8.8285,7.55819 -8.9902,7.7207 -0.1011,0.10172 -1.7559,1.58955 -3.6777,3.30665 -1.9219,1.7171 -4.5718,4.13271 -5.8868,5.36718 -1.3149,1.23447 -3.9895,3.71904 -5.9453,5.52149 -4.7437,4.37181 -21.8462,21.57186 -27.3964,27.55273 -27.4577,29.58837 -50.3633,59.40918 -71.0508,92.50586 -8.1184,12.98811 -11.8047,19.38282 -22.0157,38.18359 -1.4383,2.64817 -11.5214,22.77534 -11.5214,22.99805 0,0.0805 -0.9729,2.19638 -2.1621,4.70117 -3.9108,8.23774 -9.8539,22.04886 -14.1465,32.875 -21.2879,53.68905 -35.0188,112.03466 -39.9473,169.74805 -7.3202,85.71981 2.9559,170.43494 30.3516,250.21289 25.4868,74.2191 64.4878,141.8651 116.1679,201.4902 16.9638,19.5717 38.9975,41.6562 58.8809,59.0176 1.6158,1.4109 3.1791,2.7938 3.4746,3.0723 0.2955,0.2785 3.359,2.8532 6.8086,5.7226 37.9851,31.5968 75.1857,55.9474 118.64059,77.6602 24.0629,12.0233 48.7381,22.3648 73.9317,30.9824 57.9155,19.8103 116.3332,30.4081 178.8125,32.4414 17.2909,0.5628 42.0991,0.037 61.7382,-1.3086 96.9781,-6.6464 192.3254,-37.4467 275.8633,-89.1133 27.8142,-17.2025 51.2513,-34.4229 77.6074,-57.0195 6.7204,-5.7619 10.8625,-9.502 20.0137,-18.0781 8.831,-8.2759 25.0802,-24.8635 33.1504,-33.8399 1.1822,-1.3149 2.2538,-2.473 2.3809,-2.5742 1.1003,-0.8762 17.0851,-19.8104 22.8242,-27.0351 7.1785,-9.0367 9.7717,-12.4488 17.8867,-23.5391 4.559,-6.2305 14.292,-20.6016 19.4297,-28.6895 53.7138,-84.557 85.4954,-179.9251 93.0371,-279.17377 1.1536,-15.18244 1.3546,-20.37409 1.5566,-40.11329 0.2969,-29.01854 -0.6526,-49.00049 -3.5898,-75.56445 -9.574,-86.58529 -39.0571,-172.58296 -84.8613,-247.52148 -18.7478,-30.67263 -41.6716,-61.67226 -63.8965,-86.41016 -12.5168,-13.93213 -30.5119,-32.35521 -41.5527,-42.53906 -7.6794,-7.0833 -8.2261,-7.57803 -13.4747,-12.16602 -39.6271,-34.63961 -81.141,-62.5313 -127.9609,-85.97265 -50.9397,-25.50406 -103.4117,-43.23597 -159.0801,-53.75977 -35.0733,-6.63041 -71.2878,-10.10099 -107.5918,-10.4043 z m 290.0117,314.61719 c 2.5368,-0.0322 5.0884,0.18338 6.9942,0.6543 9.5085,2.34959 17.0334,9.80407 19.7305,19.54883 1.0095,3.64773 1.1169,9.86508 0.2304,13.24023 -1.4605,5.5601 -1.2995,5.2913 -17.8613,29.79297 -13.1299,19.42443 -15.4216,22.79324 -30.4121,44.68945 -12.7085,18.563 -38.4783,55.4863 -50.5723,72.46094 -4.1078,5.76552 -7.9983,11.22638 -8.6465,12.13672 -19.8926,27.93446 -40.1775,55.5852 -63.1445,86.07031 -16.8657,22.38656 -23.6733,31.23174 -44.8066,58.21875 -9.0286,11.52945 -28.4982,35.71917 -36.7735,45.68945 -2.3507,2.83218 -6.7392,8.12817 -9.7539,11.76954 -3.0146,3.64138 -5.5733,6.70353 -5.6855,6.80468 -0.1122,0.10115 -1.4391,1.67345 -2.9473,3.49414 -19.0335,22.97656 -51.1645,59.30021 -76.3008,86.25395 -29.9195,32.0828 -75.2818,77.3238 -84.3222,84.0976 -6.0996,4.5702 -14.0049,8.1524 -21.8262,9.8887 -2.6713,0.593 -15.483,1.0725 -18.207,0.6816 -11.9803,-1.7192 -22.5055,-6.9834 -31.1172,-15.5664 -14.4241,-14.376 -73.0343,-96.38739 -113.2539,-158.47263 -2.5277,-3.9019 -5.2636,-8.12644 -6.0801,-9.38672 -3.40819,-5.26036 -13.16729,-20.71378 -16.49019,-26.11133 -5.4939,-8.92369 -6.918,-13.12856 -6.918,-20.49414 -0.01,-14.05388 8.505,-25.86856 21.7676,-30.21289 3.01639,-0.98803 4.18509,-1.16994 8.54489,-1.32617 4.3178,-0.15473 5.5539,-0.0645 8.5293,0.62304 6.0742,1.40362 8.7545,3.00968 20.2578,12.13868 28.2241,22.39859 54.1159,41.63096 83.6465,62.13085 11.9009,8.26157 26.9871,18.05447 27.4238,17.80274 0.6212,-0.35806 35.3,-29.4339 48.5625,-40.7168 1.5133,-1.28747 16.0348,-13.71143 19.3106,-16.52148 18.8645,-16.18226 53.634,-46.65582 65.4707,-57.38086 0.708,-0.64155 4.8459,-4.3854 9.1953,-8.31836 73.3003,-66.28176 143.4995,-135.57002 238.6914,-235.5957 6.1587,-6.47135 12.9464,-13.59106 15.082,-15.82032 2.1356,-2.22926 10.6191,-11.17903 18.8535,-19.88867 17.3274,-18.32738 18.7827,-19.53647 25.9258,-21.54492 1.844,-0.51849 4.3656,-0.7979 6.9023,-0.83008 z"
       id="path2"
       style="fill:#44aa56;fill-opacity:1" /></g></svg>
